<?xml version="1.0" encoding="utf-8"?>
<!-- Generator: Adobe Illustrator 18.0.0, SVG Export Plug-In . SVG Version: 6.00 Build 0)  -->
<!DOCTYPE svg PUBLIC "-//W3C//DTD SVG 1.1//EN" "http://www.w3.org/Graphics/SVG/1.1/DTD/svg11.dtd" [
	<!ENTITY ns_flows "http://ns.adobe.com/Flows/1.0/">
	<!ENTITY ns_extend "http://ns.adobe.com/Extensibility/1.0/">
	<!ENTITY ns_ai "http://ns.adobe.com/AdobeIllustrator/10.0/">
	<!ENTITY ns_graphs "http://ns.adobe.com/Graphs/1.0/">
]>
<svg version="1.1" id="Layer_1" xmlns:x="&ns_extend;" xmlns:i="&ns_ai;" xmlns:graph="&ns_graphs;"
	 xmlns="http://www.w3.org/2000/svg" xmlns:xlink="http://www.w3.org/1999/xlink" xmlns:a="http://ns.adobe.com/AdobeSVGViewerExtensions/3.0/"
	 x="0px" y="0px" viewBox="0 0 2800 2800" enable-background="new 0 0 2800 2800" xml:space="preserve">
<linearGradient id="SVGID_1_" gradientUnits="userSpaceOnUse" x1="93.806" y1="-198.7404" x2="4165.8062" y2="4785.2598">
	<stop  offset="0" style="stop-color:#F7FAF6"/>
	<stop  offset="0.8374" style="stop-color:#D3DADE"/>
	<a:midPointStop  offset="0" style="stop-color:#F7FAF6"/>
	<a:midPointStop  offset="0.5" style="stop-color:#F7FAF6"/>
	<a:midPointStop  offset="0.8374" style="stop-color:#D3DADE"/>
</linearGradient>
<rect fill="url(#SVGID_1_)" width="2800" height="2800"/>
<g>
	<path fill="#FFFFFF" d="M2427.2,1408h-0.5v-20.6c5.4-1.9,9.3-7,9.3-13c0-5.6-3.3-10.4-8.1-12.6c-0.1-0.1-0.3-0.2-0.4-0.3l1.1-0.5
		c0,0,0.3-0.1,0.7-0.3c0.1-0.1,0.1,0,0.2-0.1c0,0,0,0,0,0c5.1-2.6,33.5-19.8,33.5-77.3c0-59-65-74.1-103.1-128.9v-27.9l-2-6.7
		c20.2-1.5,37.1-14.9,43.3-33.4c-6.9,6-15.8,9.7-25.6,9.7c-21.5,0-39-17.5-39-39c0-16.1,9.8-30,23.8-35.9c-2-0.2-4.1-0.4-6.1-0.4
		c-27.4,0-49.7,22.2-49.7,49.7c0,26.1,20.2,47.5,45.8,49.5l-2,6.6v24.1c-37.7,57.9-105.6,72.4-105.6,132.8
		c0,57.4,28.4,74.6,33.5,77.3c0,0,0,0,0,0c0.1,0.1,0.1,0.1,0.2,0.1c0.4,0.2,0.7,0.3,0.7,0.3l0.9,0.4c-5.3,1.9-9,7-9,12.9
		c0,6.3,4.2,11.6,10,13.2v20.4c-9.6,0.2-17.2,8-17.2,17.6c0,1.6,0.2,3.2,0.7,4.7c0.8,4.1,3,6.8,5.5,8.6c2.6,2.3,5.9,3.8,9.6,4.2
		v102.6h-19.6c0-0.1,0-0.2,0-0.4l-28.6-3c0-30.5,0-53.9,0-80.2c0-46.9-46.9-103.9-125.6-103.9c-68.3,0-100-42.8-107.2-54.2v-2.8
		c0,0-0.3,0.6-0.8,1.4c-0.5-0.8-0.8-1.4-0.8-1.4v2.8c-7.2,11.4-38.9,54.2-107.2,54.2c-78.7,0-125.6,57-125.6,103.9
		c0,19.9,0,73.5,0,99.1h-41.9v-207.9l-6.4-27.1v-3.6v-56.5h6.8c15.2,0,27.6-12.3,27.6-27.6c0-15.2-12.3-27.6-27.6-27.6h4
		c49-57,49-273.9-115.5-357.8c-120.4-61.5-174.2-126.3-194.4-156.6v-29.2l-3.9-13.1c40.5-3,74.1-30.2,86.7-67.2
		c-13.7,12-31.7,19.3-51.3,19.3c-43.1,0-78.1-35-78.1-78.1c0-32.3,19.6-60,47.6-71.9c-4-0.5-8.1-0.8-12.3-0.8
		c-54.9,0-99.5,44.5-99.5,99.5c0,52.3,40.4,95.1,91.6,99.1l-3.9,13.2v33c-22,31.7-76.2,93.8-191.8,152.8
		c-164.4,83.9-164.4,300.8-115.5,357.8h4.5l0.2,0.1c-14.5,0.9-25.9,12.9-25.9,27.5c0,15.2,12.3,27.6,27.6,27.6h4.8v55.9v4.3
		l-6.4,27.1v207.9h-46.2c0-25.6,0-79.3,0-99.1c0-46.9-46.9-103.9-125.6-103.9c-68.3,0-100-42.8-107.2-54.2v-2.8c0,0-0.3,0.6-0.8,1.4
		c-0.5-0.8-0.8-1.4-0.8-1.4v2.8c-7.2,11.4-38.9,54.2-107.2,54.2c-78.7,0-125.6,57-125.6,103.9c0,26.3,0,41.1,0,71.6l-1.1,18.2h-32.1
		c0,0.1,0,0.2,0,0.4h-11.1v-109.2c9.2-0.6,16.4-8.3,16.4-17.6c0-9.7-7.9-17.6-17.6-17.6h-0.3v-20.7c5.3-1.9,9-7,9-12.9
		c0-5.4-3.1-10-7.5-12.3c-0.3-0.2-0.5-0.4-0.7-0.6l1.1-0.5c0,0,0.3-0.1,0.7-0.3c0.1-0.1,0.1,0,0.2-0.1c0,0,0,0,0,0
		c5.1-2.6,33.5-19.8,33.5-77.3c0-59-65-74.1-103.1-128.9v-27.9l-2-6.7c20.2-1.5,37.1-14.9,43.3-33.4c-6.9,6-15.8,9.7-25.6,9.7
		c-21.5,0-39-17.5-39-39c0-16.1,9.8-30,23.8-35.9c-2-0.2-4.1-0.4-6.1-0.4c-27.4,0-49.7,22.2-49.7,49.7c0,26.1,20.2,47.5,45.8,49.5
		l-2,6.6v24.1c-37.7,57.9-105.6,72.4-105.6,132.8c0,57.4,28.4,74.6,33.5,77.3c0,0,0,0,0,0c0.1,0.1,0.1,0,0.2,0.1
		c0.4,0.2,0.7,0.3,0.7,0.3l0.8,0.3c-5.3,1.9-9.2,7-9.2,13c0,6.4,4.3,11.7,10.2,13.3v20.3c-9.7,0.1-17.5,8-17.5,17.6
		c0,2.8,0.7,5.5,1.9,7.9c0.7,1.5,1.6,2.8,2.6,3.9c2.9,3.2,6.9,5.4,11.4,5.8v334.6v115.3c7.5-6.2,16.2-12.6,22.8-22v-10.5l0.8-2.5
		c-7.6-0.6-14-5.6-16.4-12.6c2.6,2.3,6,3.6,9.7,3.6c8.1,0,14.7-6.6,14.7-14.7c0-6.1-3.7-11.3-9-13.6c0.8-0.1,1.5-0.2,2.3-0.2
		c10.4,0,18.8,8.4,18.8,18.8c0,9.9-7.6,17.9-17.3,18.7l0.7,2.5v9.1c14.2,21.9,39.9,27.3,39.9,50.1c0,21.7-10.7,28.2-12.6,29.2
		c0,0,0,0,0,0c0,0,0,0-0.1,0c-0.1,0.1-0.2,0.1-0.2,0.1l-0.4,0.2c0.1,0.1,0.4,0.3,0.6,0.5c0.1,0.1,0.2,0.2,0.3,0.3
		c0.1,0.2,0.3,0.3,0.4,0.5c0.1,0.2,0.2,0.3,0.3,0.5c0.1,0.2,0.2,0.5,0.3,0.7c0.1,0.2,0.2,0.4,0.2,0.7c0,0,0,0.1,0,0.1h0
		c0.1,0.5,0.2,1.1,0.2,1.7c0,3.8-2.7,3.5-2.7,3.5v9.3v0.7c0,0,6.4,0.7,6.4,6.2c0,5.5-5.8,5.9-5.8,5.9l-2.1,49.4l132.3,0.5V2013h0.4
		v-140.8c0,0-5.8-0.3-5.8-5.9c0-5.5,6.4-6.2,6.4-6.2v-0.6v-9.4c0,0-2.7,0.3-2.7-3.5c0-0.7,0.1-1.2,0.2-1.7h0c0,0,0-0.1,0-0.1
		c0.1-0.3,0.2-0.5,0.3-0.7c0.1-0.3,0.2-0.5,0.3-0.7c0.1-0.2,0.2-0.4,0.3-0.5c0.1-0.2,0.3-0.3,0.4-0.5c0.1-0.1,0.2-0.2,0.3-0.3
		c0.2-0.2,0.4-0.4,0.6-0.5l-0.4-0.2c0,0-0.1,0-0.2-0.1c0,0,0,0-0.1,0c0,0,0,0,0,0c-1.9-1-12.6-7.5-12.6-29.2
		c0-22.3,24.5-28,38.9-48.7v-10.5l0.8-2.5c-7.6-0.6-14-5.6-16.4-12.6c2.6,2.3,6,3.6,9.7,3.6c8.1,0,14.7-6.6,14.7-14.7
		c0-6.1-3.7-11.3-9-13.6c0.8-0.1,1.5-0.2,2.3-0.2c10.4,0,18.8,8.4,18.8,18.8c0,9.9-7.6,17.9-17.3,18.7l0.7,2.5v9.1
		c14.2,21.9,39.9,27.3,39.9,50.1c0,21.7-10.7,28.2-12.6,29.2c0,0,0,0,0,0c0,0,0,0-0.1,0c-0.1,0.1-0.2,0.1-0.2,0.1l-0.4,0.2
		c0.1,0.1,0.4,0.3,0.6,0.5c0.1,0.1,0.2,0.2,0.3,0.3c0.1,0.2,0.3,0.3,0.4,0.5c0.1,0.2,0.2,0.3,0.3,0.5c0.1,0.2,0.2,0.5,0.3,0.7
		c0.1,0.2,0.2,0.4,0.2,0.7c0,0,0,0.1,0,0.1h0c0.1,0.5,0.2,1.1,0.2,1.7c0,3.8-2.7,3.5-2.7,3.5v9.3v0.7c0,0,6.4,0.7,6.4,6.2
		c0,5.5-5.8,5.9-5.8,5.9v39l-2.1,118l79.7,0.8c0-11.5,0-20.4,0-30.3c0-17.7,17.7-39.2,47.4-39.2c25.8,0,37.7-16.2,40.5-20.5v-1.1
		c0,0,0.1,0.2,0.3,0.5c0.2-0.3,0.3-0.5,0.3-0.5v1.1c2.7,4.3,14.7,20.5,40.5,20.5c29.7,0,47.4,21.5,47.4,39.2c0,7.5,0,27.7,0,37.4
		H1013v-83.9c0,0-5.8-0.3-5.8-5.9c0-5.5,6.4-6.2,6.4-6.2v-0.7v-9.3c0,0-2.7,0.3-2.7-3.5c0-0.7,0.1-1.2,0.2-1.7h0c0,0,0-0.1,0-0.1
		c0.1-0.3,0.2-0.5,0.3-0.7c0.1-0.3,0.2-0.5,0.3-0.7c0.1-0.2,0.2-0.4,0.3-0.5c0.1-0.2,0.3-0.3,0.4-0.5c0.1-0.1,0.2-0.2,0.3-0.3
		c0.2-0.2,0.4-0.4,0.6-0.5l-0.4-0.2c0,0-0.1,0-0.3-0.1c0,0,0,0-0.1,0c0,0,0,0,0,0c-1.9-1-12.6-7.5-12.6-29.2
		c0-22.8,25.6-28.2,39.9-50.1v-9.1l0.7-2.5c-9.7-0.8-17.3-8.8-17.3-18.7c0-10.4,8.4-18.8,18.8-18.8c0.8,0,1.6,0.1,2.3,0.2
		c-5.3,2.2-9,7.5-9,13.6c0,8.1,6.6,14.7,14.7,14.7c3.7,0,7.1-1.4,9.7-3.6c-2.4,7-8.7,12.1-16.4,12.6l0.8,2.5v10.5
		c14.4,20.7,38.9,26.4,38.9,48.7c0,21.7-10.7,28.2-12.6,29.2c0,0,0,0,0,0c-0.1,0,0,0-0.1,0c-0.1,0.1-0.2,0.1-0.2,0.1l-0.4,0.2
		c0.1,0.1,0.4,0.3,0.6,0.5c0.1,0.1,0.2,0.2,0.3,0.3c0.1,0.2,0.3,0.3,0.4,0.5c0.1,0.2,0.2,0.3,0.3,0.5c0.1,0.2,0.2,0.5,0.3,0.7
		c0.1,0.2,0.2,0.4,0.2,0.7c0,0,0,0.1,0,0.1h0c0.1,0.5,0.2,1.1,0.2,1.7c0,3.8-2.7,3.5-2.7,3.5v9.4v0.6c0,0,6.4,0.7,6.4,6.2
		c0,5.5-5.8,5.9-5.8,5.9v41.5h4.2c0,0,0-0.1,0-0.1h12.1l0.4-6.9c0-11.5,0-17.1,0-27.1c0-17.7,17.7-39.2,47.4-39.2
		c25.8,0,37.8-16.2,40.5-20.5v-1.1c0,0,0.1,0.2,0.3,0.5c0.2-0.3,0.3-0.5,0.3-0.5v1.1c2.7,4.3,14.7,20.5,40.5,20.5
		c29.7,0,47.4,21.5,47.4,39.2c0,7.5,0,27.7,0,37.4h17.5v-78.5l2.4-10.2v-1.6V1886c0,0-11.3,0.8-11.3-8.1c0-1.5,0.4-2.8,0.9-4h0
		c0,0,0,0,0,0c0.3-0.5,0.5-1.1,0.9-1.5c0,0,0,0,0,0c1.3-1.9,3.1-3.3,4.8-4.4c0.1,0,0.2-0.1,0.2-0.1c0.3-0.2,0.7-0.4,1-0.5
		c0.2-0.1,0.4-0.2,0.6-0.3c0.2-0.1,0.4-0.2,0.6-0.3c0.4-0.2,0.8-0.3,1.1-0.4l-1.7-0.4c0,0-0.1,0-0.3-0.1c-0.1,0-0.1,0-0.1,0
		c-4.7-1.3-53.7-15.5-53.7-68.5c0-54,109.7-66.3,168.7-119.1v-14.2l1.5-5c-19.4-1.5-34.6-17.7-34.6-37.4c0-20.7,16.8-37.6,37.6-37.6
		c1.6,0,3.1,0.1,4.6,0.3c-10.6,4.5-18,14.9-18,27.1c0,16.3,13.2,29.5,29.5,29.5c7.4,0,14.2-2.8,19.4-7.3
		c-4.7,14-17.5,24.2-32.7,25.4l1.5,5v13.2c58.8,53.6,169.8,65.8,169.8,120.1c0,53-49,67.3-53.7,68.5c-0.1,0-0.1,0-0.1,0
		c-0.2,0-0.3,0.1-0.3,0.1l-1.6,0.4c0.3,0.1,0.7,0.3,1.1,0.4c0.2,0.1,0.4,0.2,0.7,0.3c0.2,0.1,0.4,0.2,0.6,0.3c0.3,0.2,0.6,0.3,1,0.5
		c0.1,0,0.2,0.1,0.2,0.1c1.7,1,3.5,2.5,4.8,4.4c0,0,0,0,0,0c0.3,0.5,0.6,1,0.9,1.5c0,0,0,0,0,0h0c0.5,1.2,0.9,2.5,0.9,4
		c0,8.9-11.3,8.1-11.3,8.1v22v1.4l2.4,10.2v78.5h15.8c0-9.7,0-29.9,0-37.4c0-17.7,17.7-39.2,47.4-39.2c25.8,0,37.8-16.2,40.5-20.5
		v-1.1c0,0,0.1,0.2,0.3,0.5c0.2-0.3,0.3-0.5,0.3-0.5v1.1c2.7,4.3,14.7,20.5,40.5,20.5c29.7,0,47.4,21.5,47.4,39.2
		c0,9.9,0,18.8,0,30.3l10.8,1.1c0,0,0,0.1,0,0.1h7.4v-39c0,0-5.8-0.3-5.8-5.9c0-5.5,6.4-6.2,6.4-6.2v-0.7v-9.3c0,0-2.7,0.3-2.7-3.5
		c0-0.7,0.1-1.2,0.2-1.7h0c0,0,0-0.1,0-0.1c0.1-0.2,0.2-0.4,0.2-0.7c0.1-0.3,0.2-0.5,0.3-0.7c0.1-0.2,0.2-0.4,0.3-0.5
		c0.1-0.2,0.3-0.4,0.4-0.5c0.1-0.1,0.2-0.2,0.3-0.3c0.2-0.2,0.4-0.4,0.6-0.5l-0.4-0.2c0,0-0.1,0-0.2-0.1c0,0,0,0-0.1,0c0,0,0,0,0,0
		c-1.9-1-12.6-7.5-12.6-29.2c0-22.8,25.6-28.2,39.9-50.1v-9.1l0.7-2.5c-9.7-0.8-17.3-8.8-17.3-18.7c0-10.4,8.4-18.8,18.8-18.8
		c0.8,0,1.6,0.1,2.3,0.2c-5.3,2.2-9,7.5-9,13.6c0,8.1,6.6,14.7,14.7,14.7c3.7,0,7.1-1.4,9.7-3.6c-2.4,7-8.7,12.1-16.4,12.6l0.8,2.5
		v10.5c14.4,20.7,38.9,26.4,38.9,48.7c0,21.7-10.7,28.2-12.6,29.2c0,0,0,0,0,0c0,0,0,0-0.1,0c-0.1,0.1-0.2,0.1-0.2,0.1l-0.4,0.2
		c0.1,0.1,0.3,0.3,0.6,0.5c0.1,0.1,0.2,0.2,0.3,0.3c0.1,0.1,0.3,0.3,0.4,0.5c0.1,0.2,0.2,0.3,0.3,0.5c0.1,0.2,0.2,0.5,0.3,0.7
		c0.1,0.2,0.2,0.4,0.3,0.7c0,0,0,0.1,0,0.1h0c0.1,0.5,0.2,1.1,0.2,1.7c0,3.8-2.7,3.5-2.7,3.5v9.4v0.6c0,0,6.4,0.7,6.4,6.2
		c0,5.5-5.8,5.9-5.8,5.9v83.9h146.2c0-9.7,0-29.9,0-37.4c0-17.7,17.7-39.2,47.4-39.2c25.8,0,37.8-16.2,40.5-20.5v-1.1
		c0,0,0.1,0.2,0.3,0.5c0.2-0.3,0.3-0.5,0.3-0.5v1.1c2.7,4.3,14.7,20.5,40.5,20.5c29.7,0,47.4,21.5,47.4,39.2c0,9.9,0,18.8,0,30.3
		l79.7-0.8l-2.1-118v-39c0,0-5.8-0.3-5.8-5.9c0-5.5,6.4-6.2,6.4-6.2v-0.7v-9.3c0,0-2.7,0.3-2.7-3.5c0-0.7,0.1-1.2,0.2-1.7h0
		c0,0,0-0.1,0-0.1c0.1-0.2,0.2-0.4,0.2-0.7c0.1-0.3,0.2-0.5,0.3-0.7c0.1-0.2,0.2-0.4,0.3-0.5c0.1-0.2,0.3-0.4,0.4-0.5
		c0.1-0.1,0.2-0.2,0.3-0.3c0.2-0.2,0.4-0.4,0.6-0.5l-0.4-0.2c0,0-0.1,0-0.2-0.1c0,0,0,0-0.1,0c0,0,0,0,0,0
		c-1.9-1-12.6-7.5-12.6-29.2c0-22.8,25.6-28.2,39.9-50.1v-9.1l0.7-2.5c-9.7-0.8-17.3-8.8-17.3-18.7c0-10.4,8.4-18.8,18.8-18.8
		c0.8,0,1.6,0.1,2.3,0.2c-5.3,2.2-9,7.5-9,13.6c0,8.1,6.6,14.7,14.7,14.7c3.7,0,7.1-1.4,9.7-3.6c-2.4,7-8.7,12.1-16.4,12.6l0.8,2.5
		v10.5c14.4,20.7,38.9,26.4,38.9,48.7c0,21.7-10.7,28.2-12.6,29.2c0,0,0,0,0,0c0,0,0,0-0.1,0c-0.1,0.1-0.2,0.1-0.2,0.1l-0.4,0.2
		c0.1,0.1,0.3,0.3,0.6,0.5c0.1,0.1,0.2,0.2,0.3,0.3c0.1,0.1,0.3,0.3,0.4,0.5c0.1,0.2,0.2,0.3,0.3,0.5c0.1,0.2,0.2,0.5,0.3,0.7
		c0.1,0.2,0.2,0.4,0.3,0.7c0,0,0,0.1,0,0.1h0c0.1,0.5,0.2,1.1,0.2,1.7c0,3.8-2.7,3.5-2.7,3.5v9.4v0.6c0,0,6.4,0.7,6.4,6.2
		c0,5.5-5.8,5.9-5.8,5.9V2013h0.4v16.7l132.3-0.5l-2.1-49.4c0,0-5.8-0.3-5.8-5.9c0-5.5,6.4-6.2,6.4-6.2v-0.7v-9.3
		c0,0-2.7,0.3-2.7-3.5c0-0.7,0.1-1.2,0.2-1.7h0c0,0,0-0.1,0-0.1c0.1-0.2,0.2-0.4,0.2-0.7c0.1-0.3,0.2-0.5,0.3-0.7
		c0.1-0.2,0.2-0.4,0.3-0.5c0.1-0.2,0.3-0.4,0.4-0.5c0.1-0.1,0.2-0.2,0.3-0.3c0.2-0.2,0.4-0.4,0.6-0.5l-0.4-0.2c0,0-0.1,0-0.2-0.1
		c0,0,0,0-0.1,0c0,0,0,0,0,0c-1.9-1-12.6-7.5-12.6-29.2c0-22.8,25.6-28.2,39.9-50.1v-9.1l0.7-2.5c-9.7-0.8-17.3-8.8-17.3-18.7
		c0-10.4,8.4-18.8,18.8-18.8c0.8,0,1.6,0.1,2.3,0.2c-5.3,2.2-9,7.5-9,13.6c0,8.1,6.6,14.7,14.7,14.7c3.7,0,7.1-1.4,9.7-3.6
		c-2.4,7-8.7,12.1-16.4,12.6l0.8,2.5v10.5c6.9,10,16.2,16.5,24,23v-78.8h-1.1v-372.1c9.3-0.5,16.6-8.2,16.6-17.6
		C2444.8,1415.9,2436.9,1408,2427.2,1408z"/>
	<g>
		<g>
			<linearGradient id="SVGID_2_" gradientUnits="userSpaceOnUse" x1="1400" y1="2306.5288" x2="1400" y2="882.6714">
				<stop  offset="0" style="stop-color:#425174"/>
				<stop  offset="0.8374" style="stop-color:#1F2A3E"/>
				<a:midPointStop  offset="0" style="stop-color:#425174"/>
				<a:midPointStop  offset="0.5" style="stop-color:#425174"/>
				<a:midPointStop  offset="0.8374" style="stop-color:#1F2A3E"/>
			</linearGradient>
			<path fill="url(#SVGID_2_)" d="M2423.2,1408h-0.5v-20.6c5.4-1.9,9.3-7,9.3-13c0-5.6-3.3-10.4-8.1-12.6c-0.1-0.1-0.3-0.2-0.4-0.3
				l1.1-0.5c0,0,0.3-0.1,0.7-0.3c0.1-0.1,0.1,0,0.2-0.1c0,0,0,0,0,0c5.1-2.6,33.5-19.8,33.5-77.3c0-59-65-74.1-103.1-128.9v-27.9
				l-2-6.7c20.2-1.5,37.1-14.9,43.3-33.4c-6.9,6-15.8,9.7-25.6,9.7c-21.5,0-39-17.5-39-39c0-16.1,9.8-30,23.8-35.9
				c-2-0.2-4.1-0.4-6.1-0.4c-27.4,0-49.7,22.2-49.7,49.7c0,26.1,20.2,47.5,45.8,49.5l-2,6.6v24.1c-37.7,57.9-105.6,72.4-105.6,132.8
				c0,57.4,28.4,74.6,33.5,77.3c0,0,0,0,0,0c0.1,0.1,0.1,0.1,0.2,0.1c0.4,0.2,0.7,0.3,0.7,0.3l0.9,0.4c-5.3,1.9-9,7-9,12.9
				c0,6.3,4.2,11.6,10,13.2v20.4c-9.6,0.2-17.2,8-17.2,17.6c0,1.6,0.2,3.2,0.7,4.7c0.8,4.1,3,6.8,5.5,8.6c2.6,2.3,5.9,3.8,9.6,4.2
				v102.6h-19.6c0-0.1,0-0.2,0-0.4l-28.6-3c0-30.5,0-53.9,0-80.2c0-46.9-46.9-103.9-125.6-103.9c-68.3,0-100-42.8-107.2-54.2v-2.8
				c0,0-0.3,0.6-0.8,1.4c-0.5-0.8-0.8-1.4-0.8-1.4v2.8c-7.2,11.4-38.9,54.2-107.2,54.2c-78.7,0-125.6,57-125.6,103.9
				c0,19.9,0,73.5,0,99.1h-41.9v-207.9l-6.4-27.1v-3.6v-56.5h6.8c15.2,0,27.6-12.3,27.6-27.6c0-15.2-12.3-27.6-27.6-27.6h4
				c49-57,49-273.9-115.5-357.8c-120.4-61.5-174.2-126.3-194.4-156.6v-29.2l-3.9-13.1c40.5-3,74.1-30.2,86.7-67.2
				c-13.7,12-31.7,19.3-51.3,19.3c-43.1,0-78.1-35-78.1-78.1c0-32.3,19.6-60,47.6-71.9c-4-0.5-8.1-0.8-12.3-0.8
				c-54.9,0-99.5,44.5-99.5,99.5c0,52.3,40.4,95.1,91.6,99.1l-3.9,13.2v33c-22,31.7-76.2,93.8-191.8,152.8
				c-164.4,83.9-164.4,300.8-115.5,357.8h4.5l0.2,0.1c-14.5,0.9-25.9,12.9-25.9,27.5c0,15.2,12.3,27.6,27.6,27.6h4.8v55.9v4.3
				l-6.4,27.1v207.9h-46.2c0-25.6,0-79.3,0-99.1c0-46.9-46.9-103.9-125.6-103.9c-68.3,0-100-42.8-107.2-54.2v-2.8
				c0,0-0.3,0.6-0.8,1.4c-0.5-0.8-0.8-1.4-0.8-1.4v2.8c-7.2,11.4-38.9,54.2-107.2,54.2c-78.7,0-125.6,57-125.6,103.9
				c0,26.3,0,41.1,0,71.6l-1.1,18.2h-32.1c0,0.1,0,0.2,0,0.4h-11.1v-109.2c9.2-0.6,16.4-8.3,16.4-17.6c0-9.7-7.9-17.6-17.6-17.6
				h-0.3v-20.7c5.3-1.9,9-7,9-12.9c0-5.4-3.1-10-7.5-12.3c-0.3-0.2-0.5-0.4-0.7-0.6l1.1-0.5c0,0,0.3-0.1,0.7-0.3
				c0.1-0.1,0.1,0,0.2-0.1c0,0,0,0,0,0c5.1-2.6,33.5-19.8,33.5-77.3c0-59-65-74.1-103.1-128.9v-27.9l-2-6.7
				c20.2-1.5,37.1-14.9,43.3-33.4c-6.9,6-15.8,9.7-25.6,9.7c-21.5,0-39-17.5-39-39c0-16.1,9.8-30,23.8-35.9c-2-0.2-4.1-0.4-6.1-0.4
				c-27.4,0-49.7,22.2-49.7,49.7c0,26.1,20.2,47.5,45.8,49.5l-2,6.6v24.1c-37.7,57.9-105.6,72.4-105.6,132.8
				c0,57.4,28.4,74.6,33.5,77.3c0,0,0,0,0,0c0.1,0.1,0.1,0,0.2,0.1c0.4,0.2,0.7,0.3,0.7,0.3l0.8,0.3c-5.3,1.9-9.2,7-9.2,13
				c0,6.4,4.3,11.7,10.2,13.3v20.3c-9.7,0.1-17.5,8-17.5,17.6c0,2.8,0.7,5.5,1.9,7.9c0.7,1.5,1.6,2.8,2.6,3.9
				c2.9,3.2,6.9,5.4,11.4,5.8v334.6v115.3c7.5-6.2,16.2-12.6,22.8-22v-10.5l0.8-2.5c-7.6-0.6-14-5.6-16.4-12.6
				c2.6,2.3,6,3.6,9.7,3.6c8.1,0,14.7-6.6,14.7-14.7c0-6.1-3.7-11.3-9-13.6c0.8-0.1,1.5-0.2,2.3-0.2c10.4,0,18.8,8.4,18.8,18.8
				c0,9.9-7.6,17.9-17.3,18.7l0.7,2.5v9.1c14.2,21.9,39.9,27.3,39.9,50.1c0,21.7-10.7,28.2-12.6,29.2c0,0,0,0,0,0c0,0,0,0-0.1,0
				c-0.1,0.1-0.2,0.1-0.2,0.1l-0.4,0.2c0.1,0.1,0.4,0.3,0.6,0.5c0.1,0.1,0.2,0.2,0.3,0.3c0.1,0.2,0.3,0.3,0.4,0.5
				c0.1,0.2,0.2,0.3,0.3,0.5c0.1,0.2,0.2,0.5,0.3,0.7c0.1,0.2,0.2,0.4,0.2,0.7c0,0,0,0.1,0,0.1h0c0.1,0.5,0.2,1.1,0.2,1.7
				c0,3.8-2.7,3.5-2.7,3.5v9.3v0.7c0,0,6.4,0.7,6.4,6.2c0,5.5-5.8,5.9-5.8,5.9l-2.1,49.4l132.3,0.5V2013h0.4v-140.8
				c0,0-5.8-0.3-5.8-5.9c0-5.5,6.4-6.2,6.4-6.2v-0.6v-9.4c0,0-2.7,0.3-2.7-3.5c0-0.7,0.1-1.2,0.2-1.7h0c0,0,0-0.1,0-0.1
				c0.1-0.3,0.2-0.5,0.3-0.7c0.1-0.3,0.2-0.5,0.3-0.7c0.1-0.2,0.2-0.4,0.3-0.5c0.1-0.2,0.3-0.3,0.4-0.5c0.1-0.1,0.2-0.2,0.3-0.3
				c0.2-0.2,0.4-0.4,0.6-0.5l-0.4-0.2c0,0-0.1,0-0.2-0.1c0,0,0,0-0.1,0c0,0,0,0,0,0c-1.9-1-12.6-7.5-12.6-29.2
				c0-22.3,24.5-28,38.9-48.7v-10.5l0.8-2.5c-7.6-0.6-14-5.6-16.4-12.6c2.6,2.3,6,3.6,9.7,3.6c8.1,0,14.7-6.6,14.7-14.7
				c0-6.1-3.7-11.3-9-13.6c0.8-0.1,1.5-0.2,2.3-0.2c10.4,0,18.8,8.4,18.8,18.8c0,9.9-7.6,17.9-17.3,18.7l0.7,2.5v9.1
				c14.2,21.9,39.9,27.3,39.9,50.1c0,21.7-10.7,28.2-12.6,29.2c0,0,0,0,0,0c0,0,0,0-0.1,0c-0.1,0.1-0.2,0.1-0.2,0.1l-0.4,0.2
				c0.1,0.1,0.4,0.3,0.6,0.5c0.1,0.1,0.2,0.2,0.3,0.3c0.1,0.2,0.3,0.3,0.4,0.5c0.1,0.2,0.2,0.3,0.3,0.5c0.1,0.2,0.2,0.5,0.3,0.7
				c0.1,0.2,0.2,0.4,0.2,0.7c0,0,0,0.1,0,0.1h0c0.1,0.5,0.2,1.1,0.2,1.7c0,3.8-2.7,3.5-2.7,3.5v9.3v0.7c0,0,6.4,0.7,6.4,6.2
				c0,5.5-5.8,5.9-5.8,5.9v39l-2.1,118l79.7,0.8c0-11.5,0-20.4,0-30.3c0-17.7,17.7-39.2,47.4-39.2c25.8,0,37.7-16.2,40.5-20.5v-1.1
				c0,0,0.1,0.2,0.3,0.5c0.2-0.3,0.3-0.5,0.3-0.5v1.1c2.7,4.3,14.7,20.5,40.5,20.5c29.7,0,47.4,21.5,47.4,39.2c0,7.5,0,27.7,0,37.4
				H1009v-83.9c0,0-5.8-0.3-5.8-5.9c0-5.5,6.4-6.2,6.4-6.2v-0.7v-9.3c0,0-2.7,0.3-2.7-3.5c0-0.7,0.1-1.2,0.2-1.7h0c0,0,0-0.1,0-0.1
				c0.1-0.3,0.2-0.5,0.3-0.7c0.1-0.3,0.2-0.5,0.3-0.7c0.1-0.2,0.2-0.4,0.3-0.5c0.1-0.2,0.3-0.3,0.4-0.5c0.1-0.1,0.2-0.2,0.3-0.3
				c0.2-0.2,0.4-0.4,0.6-0.5l-0.4-0.2c0,0-0.1,0-0.3-0.1c0,0,0,0-0.1,0c0,0,0,0,0,0c-1.9-1-12.6-7.5-12.6-29.2
				c0-22.8,25.6-28.2,39.9-50.1v-9.1l0.7-2.5c-9.7-0.8-17.3-8.8-17.3-18.7c0-10.4,8.4-18.8,18.8-18.8c0.8,0,1.6,0.1,2.3,0.2
				c-5.3,2.2-9,7.5-9,13.6c0,8.1,6.6,14.7,14.7,14.7c3.7,0,7.1-1.4,9.7-3.6c-2.4,7-8.7,12.1-16.4,12.6l0.8,2.5v10.5
				c14.4,20.7,38.9,26.4,38.9,48.7c0,21.7-10.7,28.2-12.6,29.2c0,0,0,0,0,0c-0.1,0,0,0-0.1,0c-0.1,0.1-0.2,0.1-0.2,0.1l-0.4,0.2
				c0.1,0.1,0.4,0.3,0.6,0.5c0.1,0.1,0.2,0.2,0.3,0.3c0.1,0.2,0.3,0.3,0.4,0.5c0.1,0.2,0.2,0.3,0.3,0.5c0.1,0.2,0.2,0.5,0.3,0.7
				c0.1,0.2,0.2,0.4,0.2,0.7c0,0,0,0.1,0,0.1h0c0.1,0.5,0.2,1.1,0.2,1.7c0,3.8-2.7,3.5-2.7,3.5v9.4v0.6c0,0,6.4,0.7,6.4,6.2
				c0,5.5-5.8,5.9-5.8,5.9v41.5h4.2c0,0,0-0.1,0-0.1h12.1l0.4-6.9c0-11.5,0-17.1,0-27.1c0-17.7,17.7-39.2,47.4-39.2
				c25.8,0,37.8-16.2,40.5-20.5v-1.1c0,0,0.1,0.2,0.3,0.5c0.2-0.3,0.3-0.5,0.3-0.5v1.1c2.7,4.3,14.7,20.5,40.5,20.5
				c29.7,0,47.4,21.5,47.4,39.2c0,7.5,0,27.7,0,37.4h17.5v-78.5l2.4-10.2v-1.6V1886c0,0-11.3,0.8-11.3-8.1c0-1.5,0.4-2.8,0.9-4h0
				c0,0,0,0,0,0c0.3-0.5,0.5-1.1,0.9-1.5c0,0,0,0,0,0c1.3-1.9,3.1-3.3,4.8-4.4c0.1,0,0.2-0.1,0.2-0.1c0.3-0.2,0.7-0.4,1-0.5
				c0.2-0.1,0.4-0.2,0.6-0.3c0.2-0.1,0.4-0.2,0.6-0.3c0.4-0.2,0.8-0.3,1.1-0.4l-1.7-0.4c0,0-0.1,0-0.3-0.1c-0.1,0-0.1,0-0.1,0
				c-4.7-1.3-53.7-15.5-53.7-68.5c0-54,109.7-66.3,168.7-119.1v-14.2l1.5-5c-19.4-1.5-34.6-17.7-34.6-37.4
				c0-20.7,16.8-37.6,37.6-37.6c1.6,0,3.1,0.1,4.6,0.3c-10.6,4.5-18,14.9-18,27.1c0,16.3,13.2,29.5,29.5,29.5
				c7.4,0,14.2-2.8,19.4-7.3c-4.7,14-17.5,24.2-32.7,25.4l1.5,5v13.2c58.8,53.6,169.8,65.8,169.8,120.1c0,53-49,67.3-53.7,68.5
				c-0.1,0-0.1,0-0.1,0c-0.2,0-0.3,0.1-0.3,0.1l-1.6,0.4c0.3,0.1,0.7,0.3,1.1,0.4c0.2,0.1,0.4,0.2,0.7,0.3c0.2,0.1,0.4,0.2,0.6,0.3
				c0.3,0.2,0.6,0.3,1,0.5c0.1,0,0.2,0.1,0.2,0.1c1.7,1,3.5,2.5,4.8,4.4c0,0,0,0,0,0c0.3,0.5,0.6,1,0.9,1.5c0,0,0,0,0,0h0
				c0.5,1.2,0.9,2.5,0.9,4c0,8.9-11.3,8.1-11.3,8.1v22v1.4l2.4,10.2v78.5h15.8c0-9.7,0-29.9,0-37.4c0-17.7,17.7-39.2,47.4-39.2
				c25.8,0,37.8-16.2,40.5-20.5v-1.1c0,0,0.1,0.2,0.3,0.5c0.2-0.3,0.3-0.5,0.3-0.5v1.1c2.7,4.3,14.7,20.5,40.5,20.5
				c29.7,0,47.4,21.5,47.4,39.2c0,9.9,0,18.8,0,30.3l10.8,1.1c0,0,0,0.1,0,0.1h7.4v-39c0,0-5.8-0.3-5.8-5.9c0-5.5,6.4-6.2,6.4-6.2
				v-0.7v-9.3c0,0-2.7,0.3-2.7-3.5c0-0.7,0.1-1.2,0.2-1.7h0c0,0,0-0.1,0-0.1c0.1-0.2,0.2-0.4,0.2-0.7c0.1-0.3,0.2-0.5,0.3-0.7
				c0.1-0.2,0.2-0.4,0.3-0.5c0.1-0.2,0.3-0.4,0.4-0.5c0.1-0.1,0.2-0.2,0.3-0.3c0.2-0.2,0.4-0.4,0.6-0.5l-0.4-0.2c0,0-0.1,0-0.2-0.1
				c0,0,0,0-0.1,0c0,0,0,0,0,0c-1.9-1-12.6-7.5-12.6-29.2c0-22.8,25.6-28.2,39.9-50.1v-9.1l0.7-2.5c-9.7-0.8-17.3-8.8-17.3-18.7
				c0-10.4,8.4-18.8,18.8-18.8c0.8,0,1.6,0.1,2.3,0.2c-5.3,2.2-9,7.5-9,13.6c0,8.1,6.6,14.7,14.7,14.7c3.7,0,7.1-1.4,9.7-3.6
				c-2.4,7-8.7,12.1-16.4,12.6l0.8,2.5v10.5c14.4,20.7,38.9,26.4,38.9,48.7c0,21.7-10.7,28.2-12.6,29.2c0,0,0,0,0,0c0,0,0,0-0.1,0
				c-0.1,0.1-0.2,0.1-0.2,0.1l-0.4,0.2c0.1,0.1,0.3,0.3,0.6,0.5c0.1,0.1,0.2,0.2,0.3,0.3c0.1,0.1,0.3,0.3,0.4,0.5
				c0.1,0.2,0.2,0.3,0.3,0.5c0.1,0.2,0.2,0.5,0.3,0.7c0.1,0.2,0.2,0.4,0.3,0.7c0,0,0,0.1,0,0.1h0c0.1,0.5,0.2,1.1,0.2,1.7
				c0,3.8-2.7,3.5-2.7,3.5v9.4v0.6c0,0,6.4,0.7,6.4,6.2c0,5.5-5.8,5.9-5.8,5.9v83.9h146.2c0-9.7,0-29.9,0-37.4
				c0-17.7,17.7-39.2,47.4-39.2c25.8,0,37.8-16.2,40.5-20.5v-1.1c0,0,0.1,0.2,0.3,0.5c0.2-0.3,0.3-0.5,0.3-0.5v1.1
				c2.7,4.3,14.7,20.5,40.5,20.5c29.7,0,47.4,21.5,47.4,39.2c0,9.9,0,18.8,0,30.3l79.7-0.8l-2.1-118v-39c0,0-5.8-0.3-5.8-5.9
				c0-5.5,6.4-6.2,6.4-6.2v-0.7v-9.3c0,0-2.7,0.3-2.7-3.5c0-0.7,0.1-1.2,0.2-1.7h0c0,0,0-0.1,0-0.1c0.1-0.2,0.2-0.4,0.2-0.7
				c0.1-0.3,0.2-0.5,0.3-0.7c0.1-0.2,0.2-0.4,0.3-0.5c0.1-0.2,0.3-0.4,0.4-0.5c0.1-0.1,0.2-0.2,0.3-0.3c0.2-0.2,0.4-0.4,0.6-0.5
				l-0.4-0.2c0,0-0.1,0-0.2-0.1c0,0,0,0-0.1,0c0,0,0,0,0,0c-1.9-1-12.6-7.5-12.6-29.2c0-22.8,25.6-28.2,39.9-50.1v-9.1l0.7-2.5
				c-9.7-0.8-17.3-8.8-17.3-18.7c0-10.4,8.4-18.8,18.8-18.8c0.8,0,1.6,0.1,2.3,0.2c-5.3,2.2-9,7.5-9,13.6c0,8.1,6.6,14.7,14.7,14.7
				c3.7,0,7.1-1.4,9.7-3.6c-2.4,7-8.7,12.1-16.4,12.6l0.8,2.5v10.5c14.4,20.7,38.9,26.4,38.9,48.7c0,21.7-10.7,28.2-12.6,29.2
				c0,0,0,0,0,0c0,0,0,0-0.1,0c-0.1,0.1-0.2,0.1-0.2,0.1l-0.4,0.2c0.1,0.1,0.3,0.3,0.6,0.5c0.1,0.1,0.2,0.2,0.3,0.3
				c0.1,0.1,0.3,0.3,0.4,0.5c0.1,0.2,0.2,0.3,0.3,0.5c0.1,0.2,0.2,0.5,0.3,0.7c0.1,0.2,0.2,0.4,0.3,0.7c0,0,0,0.1,0,0.1h0
				c0.1,0.5,0.2,1.1,0.2,1.7c0,3.8-2.7,3.5-2.7,3.5v9.4v0.6c0,0,6.4,0.7,6.4,6.2c0,5.5-5.8,5.9-5.8,5.9V2013h0.4v16.7l132.3-0.5
				l-2.1-49.4c0,0-5.8-0.3-5.8-5.9c0-5.5,6.4-6.2,6.4-6.2v-0.7v-9.3c0,0-2.7,0.3-2.7-3.5c0-0.7,0.1-1.2,0.2-1.7h0c0,0,0-0.1,0-0.1
				c0.1-0.2,0.2-0.4,0.2-0.7c0.1-0.3,0.2-0.5,0.3-0.7c0.1-0.2,0.2-0.4,0.3-0.5c0.1-0.2,0.3-0.4,0.4-0.5c0.1-0.1,0.2-0.2,0.3-0.3
				c0.2-0.2,0.4-0.4,0.6-0.5l-0.4-0.2c0,0-0.1,0-0.2-0.1c0,0,0,0-0.1,0c0,0,0,0,0,0c-1.9-1-12.6-7.5-12.6-29.2
				c0-22.8,25.6-28.2,39.9-50.1v-9.1l0.7-2.5c-9.7-0.8-17.3-8.8-17.3-18.7c0-10.4,8.4-18.8,18.8-18.8c0.8,0,1.6,0.1,2.3,0.2
				c-5.3,2.2-9,7.5-9,13.6c0,8.1,6.6,14.7,14.7,14.7c3.7,0,7.1-1.4,9.7-3.6c-2.4,7-8.7,12.1-16.4,12.6l0.8,2.5v10.5
				c6.9,10,16.2,16.5,24,23v-78.8h-1.1v-372.1c9.3-0.5,16.6-8.2,16.6-17.6C2440.8,1415.9,2432.9,1408,2423.2,1408z"/>
			<g>
				<linearGradient id="SVGID_3_" gradientUnits="userSpaceOnUse" x1="1225.6709" y1="2378.8481" x2="1225.6709" y2="1703.4045">
					<stop  offset="0" style="stop-color:#425174"/>
					<stop  offset="0.8374" style="stop-color:#1F2A3E"/>
					<a:midPointStop  offset="0" style="stop-color:#425174"/>
					<a:midPointStop  offset="0.5" style="stop-color:#425174"/>
					<a:midPointStop  offset="0.8374" style="stop-color:#1F2A3E"/>
				</linearGradient>
				<path fill="url(#SVGID_3_)" d="M1234,1910.5c-25.8,0-37.8-16.2-40.5-20.5v-1.1c0,0-0.1,0.2-0.3,0.5c-0.2-0.3-0.3-0.5-0.3-0.5
					v1.1c-1.8,2.8-7.4,10.5-18.1,15.6c5.6,6.4,17.2,15.9,37,15.9c29.7,0,47.4,21.5,47.4,39.2c0,7.5,0,27.7,0,37.4h17.5v-65
					C1269.5,1920.9,1254.6,1910.5,1234,1910.5z"/>
				<linearGradient id="SVGID_4_" gradientUnits="userSpaceOnUse" x1="1908.3813" y1="2378.8481" x2="1908.3813" y2="1703.4045">
					<stop  offset="0" style="stop-color:#425174"/>
					<stop  offset="0.8374" style="stop-color:#1F2A3E"/>
					<a:midPointStop  offset="0" style="stop-color:#425174"/>
					<a:midPointStop  offset="0.5" style="stop-color:#425174"/>
					<a:midPointStop  offset="0.8374" style="stop-color:#1F2A3E"/>
				</linearGradient>
				<path fill="url(#SVGID_4_)" d="M1805.7,1974.1c0.1-0.6,8,30.2,39.8,30.2c37,0,32.1,31.2,32.1,31.2v1.8h50.9c0-9.7,0-29.9,0-37.4
					c0-17.7,17.7-39.2,47.4-39.2c25.8,0,37.8-16.2,40.5-20.5v-1.1c0,0,0.1,0.2,0.3,0.5c0.2-0.3,0.3-0.5,0.3-0.5v1.1
					c2.7,4.3,14.7,20.5,40.5,20.5c29.7,0,47.4,21.5,47.4,39.2c0,9.9,0,18.8,0,30.3l79.7-0.8l-2.1-118v-39c0,0-5.8-0.3-5.8-5.9
					c0-5.5,6.4-6.2,6.4-6.2v-0.7v-9.3c0,0-2.7,0.3-2.7-3.5c0-0.7,0.1-1.2,0.2-1.7h0c0,0,0-0.1,0-0.1c0.1-0.2,0.2-0.4,0.2-0.7
					c0.1-0.3,0.2-0.5,0.3-0.7c0.1-0.2,0.2-0.4,0.3-0.5c0.1-0.2,0.3-0.4,0.4-0.5c0.1-0.1,0.2-0.2,0.3-0.3c0.2-0.2,0.4-0.4,0.6-0.5
					l-0.4-0.2c0,0-0.1,0-0.2-0.1c0,0,0,0-0.1,0c0,0,0,0,0,0c-1.9-1-12.6-7.5-12.6-29.2c0-4.2,0.9-7.8,2.4-11c-1.9-2-3.7-4.2-5.4-6.6
					V1784l-0.8-2.5c7.6-0.6,14-5.6,16.4-12.6c-2.6,2.3-6,3.6-9.7,3.6c-8.1,0-14.7-6.6-14.7-14.7c0-6.1,3.7-11.3,9-13.6
					c-0.8-0.1-1.5-0.2-2.3-0.2c-10.4,0-18.8,8.4-18.8,18.8c0,9.9,7.6,17.9,17.3,18.7l-0.7,2.5v9.1c-14.2,21.9-39.9,27.3-39.9,50.1
					c0,21.7,10.7,28.2,12.6,29.2c0,0,0,0,0,0c0,0,0,0,0.1,0c0.1,0.1,0.2,0.1,0.2,0.1l0.4,0.2c-0.1,0.1-0.4,0.3-0.6,0.5
					c-0.1,0.1-0.2,0.2-0.3,0.3c-0.1,0.2-0.3,0.3-0.4,0.5c-0.1,0.2-0.2,0.3-0.3,0.5c-0.1,0.2-0.2,0.5-0.3,0.7
					c-0.1,0.2-0.2,0.4-0.2,0.7c0,0,0,0.1,0,0.1h0c-0.1,0.5-0.2,1.1-0.2,1.7c0,3.8,2.7,3.5,2.7,3.5v9.3v0.7c0,0-6.4,0.7-6.4,6.2
					c0,5.5,5.8,5.9,5.8,5.9v39h-7.4c0,0,0-0.1,0-0.1l-10.8-1.1c0-11.5,0-20.4,0-30.3c0-17.7-17.7-39.2-47.4-39.2
					c-25.8,0-37.7-16.2-40.5-20.5v-1.1c0,0-0.1,0.2-0.3,0.5c-0.2-0.3-0.3-0.5-0.3-0.5v1.1c-2.7,4.3-14.7,20.5-40.5,20.5
					c-29.7,0-47.4,21.5-47.4,39.2c0,7.5,0,27.7,0,37.4h-15.8v-78.5l-2.4-10.2v-1.4v-22c0,0,11.3,0.8,11.3-8.1c0-1.5-0.4-2.8-0.9-4h0
					c0,0,0,0,0,0c-0.3-0.5-0.5-1.1-0.9-1.5c0,0,0,0,0,0c-1.3-1.9-3.1-3.3-4.8-4.4c-0.1,0-0.2-0.1-0.2-0.1c-0.3-0.2-0.7-0.4-1-0.5
					c-0.2-0.1-0.4-0.2-0.6-0.3c-0.2-0.1-0.4-0.2-0.7-0.3c-0.4-0.2-0.8-0.3-1.1-0.4l1.6-0.4c0,0,0.1,0,0.3-0.1c0.1,0,0.1,0,0.1,0
					c4.7-1.3,53.7-15.5,53.7-68.5c0-54.3-111.1-66.5-169.8-120.1v-13.2l-1.5-5c15.3-1.1,28-11.4,32.7-25.4c-5.2,4.5-12,7.3-19.4,7.3
					c-16.3,0-29.5-13.2-29.5-29.5c0-12.2,7.4-22.7,18-27.1c-1.5-0.2-3.1-0.3-4.6-0.3c-20.7,0-37.6,16.8-37.6,37.6
					c0,19.7,15.2,35.9,34.6,37.4l-1.5,5v14.2c-59,52.8-168.7,65.1-168.7,119.1c0,53,49,67.3,53.7,68.5c0.1,0,0.1,0,0.1,0
					c0.2,0,0.3,0.1,0.3,0.1l1.7,0.4c-0.3,0.1-0.7,0.3-1.1,0.4c-0.2,0.1-0.4,0.2-0.6,0.3c-0.2,0.1-0.4,0.2-0.6,0.3
					c-0.3,0.2-0.6,0.3-1,0.5c-0.1,0-0.2,0.1-0.2,0.1c-1.7,1-3.5,2.5-4.8,4.4c0,0,0,0,0,0c-0.3,0.5-0.6,1-0.9,1.5c0,0,0,0,0,0h0
					c-0.5,1.2-0.9,2.5-0.9,4c0,8.9,11.3,8.1,11.3,8.1v21.8v1.6l-2.4,10.2v58.9c13.2,7.8,20.6,20.8,20.6,32.2c0,9.9,0,18.8,0,30.3
					l10.8,1.1c0,0,0,0.1,0,0.1h7.4v-39c0,0-5.8-0.3-5.8-5.9c0-5.5,6.4-6.2,6.4-6.2v-0.7v-9.3c0,0-2.7,0.3-2.7-3.5
					c0-0.7,0.1-1.2,0.2-1.7h0c0,0,0-0.1,0-0.1c0.1-0.2,0.2-0.4,0.2-0.7c0.1-0.3,0.2-0.5,0.3-0.7c0.1-0.2,0.2-0.4,0.3-0.5
					c0.1-0.2,0.3-0.4,0.4-0.5c0.1-0.1,0.2-0.2,0.3-0.3c0.2-0.2,0.4-0.4,0.6-0.5l-0.4-0.2c0,0-0.1,0-0.2-0.1c0,0,0,0-0.1,0
					c0,0,0,0,0,0c-1.9-1-12.6-7.5-12.6-29.2c0-22.8,25.6-28.2,39.9-50.1v-9.1l0.7-2.5c-9.7-0.8-17.3-8.8-17.3-18.7
					c0-10.4,8.4-18.8,18.8-18.8c0.8,0,1.6,0.1,2.3,0.2c-5.3,2.2-9,7.5-9,13.6c0,8.1,6.6,14.7,14.7,14.7c3.7,0,7.1-1.4,9.7-3.6
					c-2.4,7-8.7,12.1-16.4,12.6l0.8,2.5v10.5c14.4,20.7,38.9,26.4,38.9,48.7c0,21.7-10.7,28.2-12.6,29.2c0,0,0,0,0,0c0,0,0,0-0.1,0
					c-0.1,0.1-0.2,0.1-0.2,0.1l-0.4,0.2c0.1,0.1,0.3,0.3,0.6,0.5c0.1,0.1,0.2,0.2,0.3,0.3c0.1,0.1,0.3,0.3,0.4,0.5
					c0.1,0.2,0.2,0.3,0.3,0.5c0.1,0.2,0.2,0.5,0.3,0.7c0.1,0.2,0.2,0.4,0.3,0.7c0,0,0,0.1,0,0.1h0c0.1,0.5,0.2,1.1,0.2,1.7
					c0,3.8-2.7,3.5-2.7,3.5v9.4v0.6c0,0,6.4,0.7,6.4,6.2c0,5.5-5.8,5.9-5.8,5.9v47.7C1800.6,1993.1,1805.6,1973.6,1805.7,1974.1z"/>
				<linearGradient id="SVGID_5_" gradientUnits="userSpaceOnUse" x1="1590.7897" y1="2378.8481" x2="1590.7898" y2="1703.4045">
					<stop  offset="0" style="stop-color:#425174"/>
					<stop  offset="0.8374" style="stop-color:#1F2A3E"/>
					<a:midPointStop  offset="0" style="stop-color:#425174"/>
					<a:midPointStop  offset="0.5" style="stop-color:#425174"/>
					<a:midPointStop  offset="0.8374" style="stop-color:#1F2A3E"/>
				</linearGradient>
				<path fill="url(#SVGID_5_)" d="M1621.7,1871.5c-25.8,0-37.7-16.2-40.5-20.5v-1.1c0,0-0.1,0.2-0.3,0.5c-0.2-0.3-0.3-0.5-0.3-0.5
					v1.1c-2.7,4.3-14.7,20.5-40.5,20.5c-6.3,0-12,1-17.2,2.7c0.5,1.1,0.8,2.4,0.8,3.8c0,8.9-11.3,8.1-11.3,8.1v22v1.4l2.4,10.2v78.5
					h15.8c0-9.7,0-29.9,0-37.4c0-17.7,17.7-39.2,47.4-39.2c25.8,0,37.8-16.2,40.5-20.5v-1.1c0,0,0.1,0.2,0.3,0.5
					c0.2-0.3,0.3-0.5,0.3-0.5v1.1c2.7,4.3,14.7,20.5,40.5,20.5c3.3,0,6.4,0.3,9.4,0.8c0-4.8,0-8.9,0-11.6
					C1669.1,1893,1651.4,1871.5,1621.7,1871.5z"/>
				<linearGradient id="SVGID_6_" gradientUnits="userSpaceOnUse" x1="2305.9827" y1="2378.8481" x2="2305.9829" y2="1703.4045">
					<stop  offset="0" style="stop-color:#425174"/>
					<stop  offset="0.8374" style="stop-color:#1F2A3E"/>
					<a:midPointStop  offset="0" style="stop-color:#425174"/>
					<a:midPointStop  offset="0.5" style="stop-color:#425174"/>
					<a:midPointStop  offset="0.8374" style="stop-color:#1F2A3E"/>
				</linearGradient>
				<path fill="url(#SVGID_6_)" d="M2338.6,1949.7c0,7.5,0,27.7,0,37.4h-99v25.8h0.4v16.7l132.3-0.5l-2.1-49.4c0,0-5.8-0.3-5.8-5.9
					c0-5.5,6.4-6.2,6.4-6.2v-0.7v-9.3c0,0-2.7,0.3-2.7-3.5c0-0.7,0.1-1.2,0.2-1.7h0c0,0,0-0.1,0-0.1c0.1-0.2,0.2-0.4,0.2-0.7
					c0.1-0.3,0.2-0.5,0.3-0.7c0.1-0.2,0.2-0.4,0.3-0.5c0.1-0.2,0.3-0.4,0.4-0.5c0.1-0.1,0.2-0.2,0.3-0.3c0.2-0.2,0.4-0.4,0.6-0.5
					l-0.4-0.2c0,0-0.1,0-0.2-0.1c0,0,0,0-0.1,0c0,0,0,0,0,0c-1.9-1-12.6-7.5-12.6-29.2c0-0.4,0-0.7,0-1.1
					C2345.2,1926.6,2338.6,1938.9,2338.6,1949.7z"/>
				<linearGradient id="SVGID_7_" gradientUnits="userSpaceOnUse" x1="2424.7808" y1="2378.8481" x2="2424.781" y2="1703.4045">
					<stop  offset="0" style="stop-color:#425174"/>
					<stop  offset="0.8374" style="stop-color:#1F2A3E"/>
					<a:midPointStop  offset="0" style="stop-color:#425174"/>
					<a:midPointStop  offset="0.5" style="stop-color:#425174"/>
					<a:midPointStop  offset="0.8374" style="stop-color:#1F2A3E"/>
				</linearGradient>
				<path fill="url(#SVGID_7_)" d="M2425.3,1894.1v-2.4c-0.3,0.5-0.7,0.9-1.1,1.5C2424.6,1893.5,2425,1893.8,2425.3,1894.1z"/>
				<linearGradient id="SVGID_8_" gradientUnits="userSpaceOnUse" x1="1032.6963" y1="2378.8481" x2="1032.6963" y2="1703.4044">
					<stop  offset="0" style="stop-color:#425174"/>
					<stop  offset="0.8374" style="stop-color:#1F2A3E"/>
					<a:midPointStop  offset="0" style="stop-color:#425174"/>
					<a:midPointStop  offset="0.5" style="stop-color:#425174"/>
					<a:midPointStop  offset="0.8374" style="stop-color:#1F2A3E"/>
				</linearGradient>
				<path fill="url(#SVGID_8_)" d="M1033,1814.5c-0.1-0.4-0.3-0.8-0.5-1.1C1032.6,1813.7,1032.8,1814.1,1033,1814.5z"/>
				<linearGradient id="SVGID_9_" gradientUnits="userSpaceOnUse" x1="1140.866" y1="2378.8481" x2="1140.866" y2="1703.4044">
					<stop  offset="0" style="stop-color:#425174"/>
					<stop  offset="0.8374" style="stop-color:#1F2A3E"/>
					<a:midPointStop  offset="0" style="stop-color:#425174"/>
					<a:midPointStop  offset="0.5" style="stop-color:#425174"/>
					<a:midPointStop  offset="0.8374" style="stop-color:#1F2A3E"/>
				</linearGradient>
				<path fill="url(#SVGID_9_)" d="M1118.3,1922.8c3.7-0.8,7.6-1.2,11.8-1.2c16.1,0,26.8-6.3,33.3-12.1c-3.4,0.7-7,1.1-11,1.1
					C1138,1910.5,1126.4,1915.6,1118.3,1922.8z"/>
				<linearGradient id="SVGID_10_" gradientUnits="userSpaceOnUse" x1="1074.3568" y1="2378.8481" x2="1074.3568" y2="1703.4044">
					<stop  offset="0" style="stop-color:#425174"/>
					<stop  offset="0.8374" style="stop-color:#1F2A3E"/>
					<a:midPointStop  offset="0" style="stop-color:#425174"/>
					<a:midPointStop  offset="0.5" style="stop-color:#425174"/>
					<a:midPointStop  offset="0.8374" style="stop-color:#1F2A3E"/>
				</linearGradient>
				<path fill="url(#SVGID_10_)" d="M1066,1994.8h4.2c0,0,0-0.1,0-0.1h12.1l0.4-6.9c0-3,0-5.6,0-8l-16.7-0.2V1994.8z"/>
				<linearGradient id="SVGID_11_" gradientUnits="userSpaceOnUse" x1="497.5418" y1="2378.8481" x2="497.5418" y2="1703.4044">
					<stop  offset="0" style="stop-color:#425174"/>
					<stop  offset="0.8374" style="stop-color:#1F2A3E"/>
					<a:midPointStop  offset="0" style="stop-color:#425174"/>
					<a:midPointStop  offset="0.5" style="stop-color:#425174"/>
					<a:midPointStop  offset="0.8374" style="stop-color:#1F2A3E"/>
				</linearGradient>
				<path fill="url(#SVGID_11_)" d="M570.6,1689.9l-1.5-5c15.3-1.1,28-11.4,32.7-25.4c-5.2,4.5-12,7.3-19.4,7.3
					c-16.3,0-29.5-13.2-29.5-29.5c0-12.2,7.4-22.7,18-27.1c-1.5-0.2-3.1-0.3-4.6-0.3c-20.7,0-37.6,16.8-37.6,37.6
					c0,19.7,15.2,35.9,34.6,37.4l-1.5,5v14.2c-59,52.8-168.7,65.1-168.7,119.1c0,9.6,1.6,17.9,4.3,25.1c5.8-2,10-7.5,10-13.9
					c0-6.1-3.7-11.3-9-13.6c0.8-0.1,1.5-0.2,2.3-0.2c10.4,0,18.8,8.4,18.8,18.8c0,9.9-7.6,17.9-17.3,18.7l0.2,0.7
					c14.4,24.3,41,32,44.5,32.9c0.1,0,0.1,0,0.1,0c0.2,0,0.3,0.1,0.3,0.1l1.7,0.4c-0.3,0.1-0.7,0.3-1.1,0.4
					c-0.2,0.1-0.4,0.2-0.6,0.3c-0.2,0.1-0.4,0.2-0.6,0.3c-0.3,0.2-0.6,0.3-1,0.5c-0.1,0-0.2,0.1-0.2,0.1c-1.7,1-3.5,2.5-4.8,4.4
					c0,0,0,0,0,0c-0.3,0.5-0.6,1-0.9,1.5c0,0,0,0,0,0h0c-0.5,1.2-0.9,2.5-0.9,4c0,0.9,0.1,1.7,0.3,2.4c0.5,0.8,0.9,1.7,1.4,2.5
					c3.1,3.7,9.6,3.2,9.6,3.2v21.8v1.6l-2.4,10.2v78.5h-17.5c0-9.7,0-29.9,0-37.4c0-1.8-0.2-3.6-0.5-5.4l-2.1,47.9l132.3,0.5V2013
					h0.4v-140.8c0,0-5.8-0.3-5.8-5.9c0-5.5,6.4-6.2,6.4-6.2v-0.6v-9.4c0,0-2.7,0.3-2.7-3.5c0-0.7,0.1-1.2,0.2-1.7h0c0,0,0-0.1,0-0.1
					c0.1-0.3,0.2-0.5,0.3-0.7c0.1-0.3,0.2-0.5,0.3-0.7c0.1-0.2,0.2-0.4,0.3-0.5c0.1-0.2,0.3-0.3,0.4-0.5c0.1-0.1,0.2-0.2,0.3-0.3
					c0.2-0.2,0.4-0.4,0.6-0.5l-0.4-0.2c0,0-0.1,0-0.2-0.1c0,0,0,0-0.1,0c0,0,0,0,0,0c-1.9-1-12.6-7.5-12.6-29.2
					c0-22.3,24.5-28,38.9-48.7v-10.5l0.8-2.5c-7.6-0.6-14-5.6-16.4-12.6c2.6,2.3,6,3.6,9.7,3.6c8.1,0,14.7-6.6,14.7-14.7
					c0-2.1-0.5-4.1-1.3-5.9c-8.3-5.4-16.1-11.2-23.2-17.7V1689.9z"/>
				<linearGradient id="SVGID_12_" gradientUnits="userSpaceOnUse" x1="665.1895" y1="2378.8481" x2="665.1896" y2="1703.4044">
					<stop  offset="0" style="stop-color:#425174"/>
					<stop  offset="0.8374" style="stop-color:#1F2A3E"/>
					<a:midPointStop  offset="0" style="stop-color:#425174"/>
					<a:midPointStop  offset="0.5" style="stop-color:#425174"/>
					<a:midPointStop  offset="0.8374" style="stop-color:#1F2A3E"/>
				</linearGradient>
				<path fill="url(#SVGID_12_)" d="M686,1945.7l-2.4-10.2v-1.4v-22c0,0,11.3,0.8,11.3-8.1c0-1.5-0.4-2.8-0.9-4h0c0,0,0,0,0,0
					c-0.2-0.5-0.5-1.1-0.9-1.5c0,0,0,0,0,0c-1.3-1.9-3.1-3.3-4.8-4.4c-0.1,0-0.2-0.1-0.2-0.1c-0.3-0.2-0.7-0.4-1-0.5
					c-0.2-0.1-0.4-0.2-0.6-0.3c-0.2-0.1-0.4-0.2-0.7-0.3c-0.4-0.2-0.8-0.3-1.1-0.4l1.6-0.4c0,0,0.1,0,0.3-0.1c0.1,0,0.1,0,0.1,0
					c4.7-1.3,53.7-15.5,53.7-68.5c0-44.4-74.3-60.7-133.6-94.5c0.2,1,0.3,2,0.3,3c0,9.9-7.6,17.9-17.3,18.7l0.7,2.5v9.1
					c14.2,21.9,39.9,27.3,39.9,50.1c0,21.7-10.7,28.2-12.6,29.2c0,0,0,0,0,0c0,0,0,0-0.1,0c-0.1,0.1-0.2,0.1-0.2,0.1l-0.4,0.2
					c0.1,0.1,0.4,0.3,0.6,0.5c0.1,0.1,0.2,0.2,0.3,0.3c0.1,0.2,0.3,0.3,0.4,0.5c0.1,0.2,0.2,0.3,0.3,0.5c0.1,0.2,0.2,0.5,0.3,0.7
					c0.1,0.2,0.2,0.4,0.2,0.7c0,0,0,0.1,0,0.1h0c0.1,0.5,0.2,1.1,0.2,1.7c0,3.8-2.7,3.5-2.7,3.5v9.3v0.7c0,0,6.4,0.7,6.4,6.2
					c0,5.5-5.8,5.9-5.8,5.9v39l-2.1,118l79.7,0.8c0-2,0-4,0-5.8h-9V1945.7z"/>
				<linearGradient id="SVGID_13_" gradientUnits="userSpaceOnUse" x1="952.2769" y1="2378.8481" x2="952.2769" y2="1703.4044">
					<stop  offset="0" style="stop-color:#425174"/>
					<stop  offset="0.8374" style="stop-color:#1F2A3E"/>
					<a:midPointStop  offset="0" style="stop-color:#425174"/>
					<a:midPointStop  offset="0.5" style="stop-color:#425174"/>
					<a:midPointStop  offset="0.8374" style="stop-color:#1F2A3E"/>
				</linearGradient>
				<path fill="url(#SVGID_13_)" d="M1029.3,1794.9C1029.3,1794.9,1029.3,1794.9,1029.3,1794.9c-0.1-0.3-0.2-0.5-0.3-0.8
					c-0.1-0.3-0.2-0.5-0.3-0.7c-0.1-0.2-0.2-0.4-0.3-0.5c-0.1-0.2-0.3-0.4-0.4-0.5c-0.1-0.1-0.2-0.2-0.3-0.3
					c-0.2-0.2-0.4-0.4-0.6-0.5l0.4-0.2c0,0,0.1,0,0.2-0.1c0,0,0,0,0.1,0c0,0,0,0,0,0c1.9-1,12.6-7.5,12.6-29.2
					c0-22.8-25.6-28.2-39.9-50.1v-9.1l-0.7-2.5c9.7-0.8,17.3-8.8,17.3-18.7c0-10.4-8.4-18.8-18.8-18.8c-0.8,0-1.6,0.1-2.3,0.2
					c5.3,2.2,9,7.5,9,13.6c0,8.1-6.6,14.7-14.7,14.7c-3.7,0-7.1-1.4-9.7-3.6c2.4,7,8.7,12.1,16.4,12.6l-0.8,2.5v10.5
					c-14.4,20.7-38.9,26.4-38.9,48.7c0,21.7,10.7,28.2,12.6,29.2c0,0,0,0,0,0c0,0,0,0,0.1,0c0.1,0.1,0.2,0.1,0.2,0.1l0.4,0.2
					c-0.1,0.1-0.3,0.3-0.6,0.5c-0.1,0.1-0.2,0.2-0.3,0.3c-0.1,0.1-0.3,0.3-0.4,0.5c-0.1,0.2-0.2,0.3-0.3,0.5
					c-0.1,0.2-0.2,0.5-0.3,0.7c-0.1,0.2-0.2,0.4-0.3,0.7c0,0,0,0.1,0,0.1h0c-0.1,0.5-0.2,1.1-0.2,1.7c0,3.8,2.7,3.5,2.7,3.5v9.4v0.6
					c0,0-6.4,0.7-6.4,6.2c0,5.5,5.8,5.9,5.8,5.9V1963h-0.4v16.7l-105.9-0.4c4.8,6.4,7.4,13.7,7.4,20.4c0,7.5,0,27.7,0,37.4H1009
					v-83.9c0,0-5.8-0.3-5.8-5.9c0-5.5,6.4-6.2,6.4-6.2v-0.7v-9.3c0,0-2.7,0.3-2.7-3.5c0-0.7,0.1-1.2,0.2-1.7h0c0,0,0-0.1,0-0.1
					c0.1-0.3,0.2-0.5,0.3-0.7c0.1-0.3,0.2-0.5,0.3-0.7c0.1-0.2,0.2-0.4,0.3-0.5c0.1-0.2,0.3-0.3,0.4-0.5c0.1-0.1,0.2-0.2,0.3-0.3
					c0.2-0.2,0.4-0.4,0.6-0.5l-0.4-0.2c0,0-0.1,0-0.3-0.1c0,0,0,0-0.1,0c0,0,0,0,0,0c-1.9-1-12.6-7.5-12.6-29.2
					c0-18.8,17.4-25.8,31.5-40v-25c-4.9-3.4-8.2-9-8.2-15.5c0-7.3,4.2-13.6,10.3-16.7C1029.5,1795.7,1029.4,1795.3,1029.3,1794.9
					L1029.3,1794.9z"/>
				<linearGradient id="SVGID_14_" gradientUnits="userSpaceOnUse" x1="781.9103" y1="2378.8481" x2="781.9103" y2="1703.4044">
					<stop  offset="0" style="stop-color:#425174"/>
					<stop  offset="0.8374" style="stop-color:#1F2A3E"/>
					<a:midPointStop  offset="0" style="stop-color:#425174"/>
					<a:midPointStop  offset="0.5" style="stop-color:#425174"/>
					<a:midPointStop  offset="0.8374" style="stop-color:#1F2A3E"/>
				</linearGradient>
				<path fill="url(#SVGID_14_)" d="M839,1948.1l0.8-18.3c0,0,5.8-0.3,5.8-5.9c0-5.5-6.4-6.2-6.4-6.2v-0.7v-9.3c0,0,2.7,0.3,2.7-3.5
					c0-0.7-0.1-1.2-0.2-1.7h0c0,0,0-0.1,0-0.1c-0.1-0.2-0.2-0.4-0.2-0.7c-0.1-0.3-0.2-0.5-0.3-0.7c-0.1-0.2-0.2-0.4-0.3-0.5
					c-0.1-0.2-0.3-0.4-0.4-0.5c-0.1-0.1-0.2-0.2-0.3-0.3c-0.2-0.2-0.4-0.4-0.6-0.5l0.4-0.2c0,0,0.1,0,0.2-0.1c0,0,0,0,0.1,0
					c0,0,0,0,0,0c1.9-1,12.6-7.5,12.6-29.2c0-22.8-25.6-28.2-39.9-50.1v-9.1l-0.7-2.5c9.7-0.8,17.3-8.8,17.3-18.7
					c0-10.4-8.4-18.8-18.8-18.8c-0.8,0-1.6,0.1-2.3,0.2c5.3,2.2,9,7.5,9,13.6c0,8.1-6.6,14.7-14.7,14.7c-3.7,0-7.1-1.4-9.7-3.6
					c2.4,7,8.7,12.1,16.4,12.6l-0.8,2.5v10.5c-14.4,20.7-38.9,26.4-38.9,48.7c0,21.7,10.7,28.2,12.6,29.2c0,0,0,0,0,0c0,0,0,0,0.1,0
					c0.1,0.1,0.2,0.1,0.2,0.1l0.4,0.2c-0.1,0.1-0.3,0.3-0.6,0.5c-0.1,0.1-0.2,0.2-0.3,0.3c-0.1,0.1-0.3,0.3-0.4,0.5
					c-0.1,0.2-0.2,0.3-0.3,0.5c-0.1,0.2-0.2,0.5-0.3,0.7c-0.1,0.2-0.2,0.4-0.3,0.7c0,0,0,0.1,0,0.1h0c-0.1,0.5-0.2,1.1-0.2,1.7
					c0,3.8,2.7,3.5,2.7,3.5v9.4v0.6c0,0-6.4,0.7-6.4,6.2c0,5.5,5.8,5.9,5.8,5.9v5.4c-6.4,5.8-17.2,12.3-33.5,12.3
					c-25.2,0-41.7,15.4-46.2,30.9c7.9-10.1,21.5-17.9,39.4-17.9c25.8,0,37.7-16.2,40.5-20.5v-1.1c0,0,0.1,0.2,0.3,0.5
					c0.2-0.3,0.3-0.5,0.3-0.5v1.1c2.7,4.3,14.7,20.5,40.5,20.5c16.1,0,28.7,6.3,36.8,14.9v-18.9
					C854.9,1952.4,847.5,1949.3,839,1948.1z"/>
			</g>
		</g>
		<g>
			<path fill="#0A0D14" d="M2355.6,1143.7v-6.9c-0.7,0.1-1.3,0.1-2,0.2L2355.6,1143.7z"/>
			<path fill="#0A0D14" d="M2344.1,1136.8v6.8l2-6.6C2345.4,1137,2344.8,1136.9,2344.1,1136.8z"/>
			<path fill="#0A0D14" d="M2224.9,1542.5c0,5.5,0,11.1,0,17l28.6,3c0,0.1,0,0.2,0,0.4h19.6v-17h-19.6c0-0.1,0-0.2,0-0.4
				L2224.9,1542.5z"/>
			<path fill="#0A0D14" d="M2333.3,1065.7c-0.6,2.7-0.9,5.6-0.9,8.5c0,21.5,17.5,39,39,39c1.4,0,2.8-0.1,4.2-0.2
				c9.9-6,17.6-15.3,21.4-26.5c-6.9,6-15.8,9.7-25.6,9.7C2352.7,1096.2,2337.2,1083.1,2333.3,1065.7z"/>
			<path fill="#0A0D14" d="M1364.1,536.9c-0.3,2.8-0.5,5.7-0.5,8.5c0,43.1,35,78.1,78.1,78.1c13.5,0,26.2-3.5,37.3-9.5
				c6-8.1,10.7-17.1,14-26.8c-13.7,12-31.7,19.3-51.3,19.3C1401.5,606.5,1368.3,576.1,1364.1,536.9z"/>
			<path fill="#0A0D14" d="M2336.5,1039.8c4.1-8.3,11.1-14.9,19.7-18.5c-2-0.2-4.1-0.4-6.1-0.4c-27.4,0-49.7,22.2-49.7,49.7
				c0,2.9,0.3,5.8,0.7,8.5C2304.3,1060.1,2318.3,1044.9,2336.5,1039.8z"/>
			<path fill="#0A0D14" d="M1410.3,696.7v17c20.2,30.3,74,95.2,194.4,156.6c102.9,52.5,141.4,157.1,143.8,241.9
				c2.5-87.4-33.9-202.9-143.8-259C1484.2,791.9,1430.4,727,1410.3,696.7z"/>
			<path fill="#0A0D14" d="M1715.7,1578.5h41.9c0-4.8,0-10.6,0-17h-41.9V1578.5z"/>
			<path fill="#0A0D14" d="M1883.2,1375.5c68.3,0,100-42.8,107.2-54.2v-2.8c0,0,0.3,0.6,0.8,1.4c0.5-0.8,0.8-1.4,0.8-1.4v2.8
				c7.2,11.4,38.9,54.2,107.2,54.2c78.7,0,125.6,57,125.6,103.9c0-5.6,0-11.3,0-17c0-46.9-46.9-103.9-125.6-103.9
				c-68.3,0-100-42.8-107.2-54.2v-2.8c0,0-0.3,0.6-0.8,1.4c-0.5-0.8-0.8-1.4-0.8-1.4v2.8c-7.2,11.4-38.9,54.2-107.2,54.2
				c-78.7,0-125.6,57-125.6,103.9c0,4.3,0,10.2,0,17C1757.6,1432.5,1804.5,1375.5,1883.2,1375.5z"/>
			<path fill="#0A0D14" d="M2267.6,1383c1.6-2,3.7-3.5,6.1-4.4l-0.9-0.4c0,0-0.3-0.1-0.7-0.3c-0.1-0.1-0.1,0-0.2-0.1c0,0,0,0,0,0
				c-1.2-0.6-3.9-2.2-7.2-5c-0.1,0.5-0.1,1.1-0.1,1.7C2264.7,1377.7,2265.8,1380.6,2267.6,1383z"/>
			<path fill="#0A0D14" d="M2344.1,1167.8v-17c-37.7,57.9-105.6,72.4-105.6,132.8c0,3.6,0.1,7,0.3,10.2
				C2243.8,1239,2307.9,1223.5,2344.1,1167.8z"/>
			<path fill="#0A0D14" d="M2274.6,1408.1c-9.6,0.2-17.2,8-17.2,17.6c0,1.6,0.2,3.2,0.7,4.7c0.3,1.5,0.8,2.9,1.4,4
				c2.9-5.4,8.6-9.2,15.2-9.3V1408.1z"/>
			<path fill="#0A0D14" d="M1410.3,684.5V671c-1.3,0.1-2.6,0.3-3.9,0.4L1410.3,684.5z"/>
			<path fill="#0A0D14" d="M2425.3,1377.8c-0.1,0.1-0.1,0-0.2,0.1c-0.4,0.2-0.7,0.3-0.7,0.3l-1.1,0.5c0.1,0.1,0.2,0.2,0.4,0.3
				c2,0.9,3.8,2.3,5.2,4c1.9-2.3,3-5.3,3-8.5c0-0.4,0-0.7,0-1.1C2428.9,1375.8,2426.5,1377.2,2425.3,1377.8
				C2425.3,1377.8,2425.3,1377.8,2425.3,1377.8z"/>
			<path fill="#0A0D14" d="M2355.6,1154.5v17c36.6,52.7,98,68.7,102.8,122.1c0.2-3.3,0.3-6.6,0.3-10.2
				C2458.8,1224.5,2393.8,1209.4,2355.6,1154.5z"/>
			<path fill="#0A0D14" d="M1387.2,670.9v13.6l3.9-13.2C1389.8,671.2,1388.5,671.1,1387.2,670.9z"/>
			<path fill="#0A0D14" d="M1742.3,1247.3c0.9-2.7,1.3-5.5,1.3-8.5c0-10.4-5.8-19.5-14.3-24.2c-2.8,5.2-5.9,9.8-9.2,13.7h-4
				C1728.4,1228.2,1738.7,1236.2,1742.3,1247.3z"/>
			<path fill="#0A0D14" d="M1590.6,1809.5c0,0,1.2-7.5,0.1-18c-0.1,0.6-0.1,0.9-0.1,0.9V1809.5z"/>
			<polygon fill="#0A0D14" points="1709.3,1343.5 1715.7,1370.6 1715.7,1353.6 1709.3,1326.5 1709.3,1339.9 			"/>
			<path fill="#0A0D14" d="M458.3,1154.5v17c36.6,52.7,98,68.7,102.8,122.1c0.2-3.3,0.3-6.6,0.3-10.2
				C561.5,1224.5,496.5,1209.4,458.3,1154.5z"/>
			<path fill="#0A0D14" d="M1386.2,473.6c7.1-7.2,15.6-13,25-17c-4-0.5-8.1-0.8-12.3-0.8c-54.9,0-99.5,44.5-99.5,99.5
				c0,2.9,0.1,5.7,0.4,8.5C1303.8,517,1340.1,479.5,1386.2,473.6z"/>
			<path fill="#0A0D14" d="M436,1065.7c-0.6,2.7-0.9,5.6-0.9,8.5c0,21.5,17.5,39,39,39c1.4,0,2.8-0.1,4.2-0.2
				c9.9-6,17.6-15.3,21.4-26.5c-6.9,6-15.8,9.7-25.6,9.7C455.4,1096.2,439.9,1083.1,436,1065.7z"/>
			<path fill="#0A0D14" d="M439.2,1039.8c4.1-8.3,11.1-14.9,19.7-18.5c-2-0.2-4.1-0.4-6.1-0.4c-27.4,0-49.7,22.2-49.7,49.7
				c0,2.9,0.3,5.8,0.7,8.5C407,1060.1,421,1044.9,439.2,1039.8z"/>
			<path fill="#0A0D14" d="M696.7,1375.5c68.3,0,100-42.8,107.2-54.2v-2.8c0,0,0.3,0.6,0.8,1.4c0.5-0.8,0.8-1.4,0.8-1.4v2.8
				c7.2,11.4,38.9,54.2,107.2,54.2c78.7,0,125.6,57,125.6,103.9c0-6.8,0-12.7,0-17c0-46.9-46.9-103.9-125.6-103.9
				c-68.3,0-100-42.8-107.2-54.2v-2.8c0,0-0.3,0.6-0.8,1.4c-0.5-0.8-0.8-1.4-0.8-1.4v2.8c-7.2,11.4-38.9,54.2-107.2,54.2
				c-78.7,0-125.6,57-125.6,103.9c0,6.2,0,11.8,0,17C571.1,1432.5,618,1375.5,696.7,1375.5z"/>
			<path fill="#0A0D14" d="M446.8,1167.8v-17c-37.7,57.9-105.6,72.4-105.6,132.8c0,3.6,0.1,7,0.3,10.2
				C346.5,1239,410.5,1223.5,446.8,1167.8z"/>
			<path fill="#0A0D14" d="M2423.2,1408h-0.5v17h0.5c6.7,0,12.4,3.7,15.4,9.1c1.4-2.5,2.2-5.4,2.2-8.5
				C2440.8,1415.9,2432.9,1408,2423.2,1408z"/>
			<rect x="2424.2" y="1815.4" fill="#0A0D14" width="1.1" height="17"/>
			<path fill="#0A0D14" d="M1038.4,1578.5h46.2v-17h-46.2C1038.4,1567.8,1038.4,1573.7,1038.4,1578.5z"/>
			<path fill="#0A0D14" d="M1209.7,1809.5v-17c0,0-0.1-0.3-0.1-0.9C1208.5,1802,1209.7,1809.5,1209.7,1809.5z"/>
			<path fill="#0A0D14" d="M538,1552.5h-11.1v17H538c0-0.1,0-0.2,0-0.4H570l1.1-18.2c0-6.3,0-11.9,0-17l-1.1,18.2h-32.1
				C537.9,1552.3,538,1552.4,538,1552.5z"/>
			<path fill="#0A0D14" d="M446.8,1136.8v6.8l2-6.6C448.1,1137,447.5,1136.9,446.8,1136.8z"/>
			<path fill="#0A0D14" d="M458.3,1143.7v-6.9c-0.7,0.1-1.3,0.1-2,0.2L458.3,1143.7z"/>
			<path fill="#0A0D14" d="M1058.7,1238.7c0,3,0.5,5.8,1.3,8.5c3.4-10.6,13-18.3,24.6-19l-0.2-0.1h-4.5c-3.1-3.6-6-7.8-8.6-12.6
				C1063.7,1220.5,1058.7,1229.1,1058.7,1238.7z"/>
			<path fill="#0A0D14" d="M1195.3,870.4c115.6-59,169.8-121.1,191.8-152.8v-17c-22,31.7-76.2,93.8-191.8,152.8
				c-109.9,56.1-146.3,171.5-143.8,259C1054,1027.4,1092.5,922.9,1195.3,870.4z"/>
			<path fill="#0A0D14" d="M377.3,1425.1v-17c-9.7,0.1-17.5,8-17.5,17.6c0,2.8,0.7,5.5,1.9,7.9c0.1,0.2,0.2,0.4,0.3,0.6
				C365,1428.8,370.7,1425.2,377.3,1425.1z"/>
			<path fill="#0A0D14" d="M526.8,1379.2c1.8,0.9,3.3,2.2,4.6,3.8c1.9-2.3,3-5.3,3-8.5c0-0.3,0-0.6,0-0.9c-2.9,2.3-5.2,3.7-6.3,4.2
				c0,0,0,0,0,0c-0.1,0.1-0.1,0-0.2,0.1c-0.4,0.2-0.7,0.3-0.7,0.3l-1.1,0.5C526.3,1378.8,526.6,1379,526.8,1379.2z"/>
			<path fill="#0A0D14" d="M370.1,1383c1.6-2,3.7-3.6,6.2-4.5l-0.8-0.3c0,0-0.3-0.1-0.7-0.3c-0.1,0-0.1,0-0.2-0.1c0,0,0,0,0,0
				c-1.3-0.7-4-2.2-7.4-5.1c-0.1,0.6-0.1,1.2-0.1,1.8C367.1,1377.7,368.2,1380.7,370.1,1383z"/>
			<polygon fill="#0A0D14" points="1091.1,1339.2 1091.1,1326.5 1084.6,1353.6 1084.6,1370.6 1091.1,1343.5 			"/>
			<path fill="#0A0D14" d="M525.6,1425.1c6.7,0,12.4,3.7,15.4,9.1c1.4-2.5,2.2-5.4,2.2-8.5c0-9.7-7.9-17.6-17.6-17.6h-0.3v17H525.6z
				"/>
		</g>
		<linearGradient id="SVGID_15_" gradientUnits="userSpaceOnUse" x1="1208.8793" y1="1147.7454" x2="1389.8793" y2="983.7453">
			<stop  offset="0" style="stop-color:#FFE610"/>
			<stop  offset="0.8374" style="stop-color:#FEA621"/>
			<a:midPointStop  offset="0" style="stop-color:#FFE610"/>
			<a:midPointStop  offset="0.5" style="stop-color:#FFE610"/>
			<a:midPointStop  offset="0.8374" style="stop-color:#FEA621"/>
		</linearGradient>
		<path fill="url(#SVGID_15_)" d="M1320.5,1135c-49.9,0-90.4-40.5-90.4-90.4c0-46.6,35.2-84.9,80.5-89.8c-3.7-0.4-7.4-0.6-11.1-0.6
			c-61.5,0-111.4,49.9-111.4,111.4c0,61.5,49.9,111.4,111.4,111.4c61.5,0,111.4-49.9,111.4-111.4c0-3.8-0.2-7.5-0.6-11.1
			C1405.4,1099.8,1367.1,1135,1320.5,1135z"/>
		<g>
			<path fill="#FEDB2A" d="M1442.9,908c-11.1,1.3-12.1,2.3-13.4,13.4c-1.3-11.1-2.3-12.1-13.4-13.4c11.1-1.3,12.1-2.3,13.4-13.4
				C1430.8,905.7,1431.8,906.8,1442.9,908z"/>
			<path fill="#FEDB2A" d="M2359.5,1301.5c-11.1,1.3-12.1,2.3-13.4,13.4c-1.3-11.1-2.3-12.1-13.4-13.4c11.1-1.3,12.1-2.3,13.4-13.4
				C2347.3,1299.3,2348.4,1300.3,2359.5,1301.5z"/>
			<path fill="#FEDB2A" d="M1676.4,1113.2c-11.1,1.3-12.1,2.3-13.4,13.4c-1.3-11.1-2.3-12.1-13.4-13.4c11.1-1.3,12.1-2.3,13.4-13.4
				C1664.3,1110.9,1665.3,1112,1676.4,1113.2z"/>
			<path fill="#FEDB2A" d="M2288,1638.9c-11.1,1.3-12.1,2.3-13.4,13.4c-1.3-11.1-2.3-12.1-13.4-13.4c11.1-1.3,12.1-2.3,13.4-13.4
				C2275.9,1636.7,2276.9,1637.7,2288,1638.9z"/>
			<path fill="#FEDB2A" d="M1367.5,1314.9c-11.1,1.3-12.1,2.3-13.4,13.4c-1.3-11.1-2.3-12.1-13.4-13.4c11.1-1.3,12.1-2.3,13.4-13.4
				C1355.4,1312.6,1356.4,1313.7,1367.5,1314.9z"/>
			<path fill="#FEDB2A" d="M1238.8,1233.1c-11.1,1.3-12.1,2.3-13.4,13.4c-1.3-11.1-2.3-12.1-13.4-13.4c11.1-1.3,12.1-2.3,13.4-13.4
				C1226.6,1230.9,1227.6,1231.9,1238.8,1233.1z"/>
			<path fill="#FEDB2A" d="M722.4,1547.3c-11.1,1.3-12.1,2.3-13.4,13.4c-1.3-11.1-2.3-12.1-13.4-13.4c11.1-1.3,12.1-2.3,13.4-13.4
				C710.3,1545.1,711.3,1546.1,722.4,1547.3z"/>
			<path fill="#FEDB2A" d="M1154.2,1188.6c-6.3,0.7-6.9,1.3-7.6,7.6c-0.7-6.3-1.3-6.9-7.6-7.6c6.3-0.7,6.9-1.3,7.6-7.6
				C1147.3,1187.3,1147.9,1187.9,1154.2,1188.6z"/>
			<path fill="#FEDB2A" d="M442.7,1280.1c-6.3,0.7-6.9,1.3-7.6,7.6c-0.7-6.3-1.3-6.9-7.6-7.6c6.3-0.7,6.9-1.3,7.6-7.6
				C435.8,1278.8,436.3,1279.4,442.7,1280.1z"/>
			<path fill="#FEDB2A" d="M1414,820.8c-6.3,0.7-6.9,1.3-7.6,7.6c-0.7-6.3-1.3-6.9-7.6-7.6c6.3-0.7,6.9-1.3,7.6-7.6
				C1407.1,819.6,1407.6,820.1,1414,820.8z"/>
			<path fill="#FEDB2A" d="M1531,992.5c-6.3,0.7-6.9,1.3-7.6,7.6c-0.7-6.3-1.3-6.9-7.6-7.6c6.3-0.7,6.9-1.3,7.6-7.6
				C1524.1,991.2,1524.7,991.8,1531,992.5z"/>
			<path fill="#FEDB2A" d="M1606.5,1398.1c-6.3,0.7-6.9,1.3-7.6,7.6c-0.7-6.3-1.3-6.9-7.6-7.6c6.3-0.7,6.9-1.3,7.6-7.6
				C1599.6,1396.8,1600.1,1397.4,1606.5,1398.1z"/>
			<path fill="#FEDB2A" d="M905,1562c-11.1,1.3-12.1,2.3-13.4,13.4c-1.3-11.1-2.3-12.1-13.4-13.4c11.1-1.3,12.1-2.3,13.4-13.4
				C892.9,1559.8,893.9,1560.8,905,1562z"/>
			<path fill="#FEDB2A" d="M472.2,1370.6c-11.1,1.3-12.1,2.3-13.4,13.4c-1.3-11.1-2.3-12.1-13.4-13.4c11.1-1.3,12.1-2.3,13.4-13.4
				C460.1,1368.3,461.1,1369.3,472.2,1370.6z"/>
			<path fill="#FEDB2A" d="M876.1,1474.9c-6.3,0.7-6.9,1.3-7.6,7.6c-0.7-6.3-1.3-6.9-7.6-7.6c6.3-0.7,6.9-1.3,7.6-7.6
				C869.2,1473.6,869.7,1474.2,876.1,1474.9z"/>
			<path fill="#FEDB2A" d="M438.6,1503c-6.3,0.7-6.9,1.3-7.6,7.6c-0.7-6.3-1.3-6.9-7.6-7.6c6.3-0.7,6.9-1.3,7.6-7.6
				C431.6,1501.7,432.2,1502.3,438.6,1503z"/>
			<path fill="#FEDB2A" d="M1361.8,977.3c-6.3,0.7-6.9,1.3-7.6,7.6c-0.7-6.3-1.3-6.9-7.6-7.6c6.3-0.7,6.9-1.3,7.6-7.6
				C1354.9,976,1355.4,976.5,1361.8,977.3z"/>
			<path fill="#FEDB2A" d="M2362.3,1473.6c-6.3,0.7-6.9,1.3-7.6,7.6c-0.7-6.3-1.3-6.9-7.6-7.6c6.3-0.7,6.9-1.3,7.6-7.6
				C2355.4,1472.3,2355.9,1472.8,2362.3,1473.6z"/>
			<path fill="#FEDB2A" d="M1906.4,1560.7c-11.1,1.3-12.1,2.3-13.4,13.4c-1.3-11.1-2.3-12.1-13.4-13.4c11.1-1.3,12.1-2.3,13.4-13.4
				C1894.3,1558.5,1895.3,1559.5,1906.4,1560.7z"/>
			<path fill="#FEDB2A" d="M1877.5,1473.6c-6.3,0.7-6.9,1.3-7.6,7.6c-0.7-6.3-1.3-6.9-7.6-7.6c6.3-0.7,6.9-1.3,7.6-7.6
				C1870.5,1472.3,1871.1,1472.8,1877.5,1473.6z"/>
			<path fill="#FEDB2A" d="M1568.3,1020.8c-6.3,0.7-6.9,1.3-7.6,7.6c-0.7-6.3-1.3-6.9-7.6-7.6c6.3-0.7,6.9-1.3,7.6-7.6
				C1561.4,1019.5,1561.9,1020.1,1568.3,1020.8z"/>
			<path fill="#FEDB2A" d="M2030.6,1467.1c-6.3,0.7-6.9,1.3-7.6,7.6c-0.7-6.3-1.3-6.9-7.6-7.6c6.3-0.7,6.9-1.3,7.6-7.6
				C2023.7,1465.8,2024.3,1466.3,2030.6,1467.1z"/>
			<path fill="#FEDB2A" d="M2308,1288.1c-6.3,0.7-6.9,1.3-7.6,7.6c-0.7-6.3-1.3-6.9-7.6-7.6c6.3-0.7,6.9-1.3,7.6-7.6
				C2301,1286.8,2301.6,1287.4,2308,1288.1z"/>
			<path fill="#FEDB2A" d="M1466.3,1264.8c-6.3,0.7-6.9,1.3-7.6,7.6c-0.7-6.3-1.3-6.9-7.6-7.6c6.3-0.7,6.9-1.3,7.6-7.6
				C1459.4,1263.6,1459.9,1264.1,1466.3,1264.8z"/>
			<path fill="#FEDB2A" d="M1538.7,1495.3c-6.3,0.7-6.9,1.3-7.6,7.6c-0.7-6.3-1.3-6.9-7.6-7.6c6.3-0.7,6.9-1.3,7.6-7.6
				C1531.7,1494.1,1532.3,1494.6,1538.7,1495.3z"/>
			<path fill="#FEDB2A" d="M2067.9,1495.3c-6.3,0.7-6.9,1.3-7.6,7.6c-0.7-6.3-1.3-6.9-7.6-7.6c6.3-0.7,6.9-1.3,7.6-7.6
				C2061,1494.1,2061.6,1494.6,2067.9,1495.3z"/>
			<path fill="#FEDB2A" d="M1284.3,1534c-6.3,0.7-6.9,1.3-7.6,7.6c-0.7-6.3-1.3-6.9-7.6-7.6c6.3-0.7,6.9-1.3,7.6-7.6
				C1277.3,1532.7,1277.9,1533.3,1284.3,1534z"/>
			<path fill="#FEDB2A" d="M1587.1,1214.5c-6.3,0.7-6.9,1.3-7.6,7.6c-0.7-6.3-1.3-6.9-7.6-7.6c6.3-0.7,6.9-1.3,7.6-7.6
				C1580.1,1213.3,1580.7,1213.8,1587.1,1214.5z"/>
			<path fill="#FEDB2A" d="M1233,1405.7c-6.3,0.7-6.9,1.3-7.6,7.6c-0.7-6.3-1.3-6.9-7.6-7.6c6.3-0.7,6.9-1.3,7.6-7.6
				C1226.1,1404.4,1226.7,1405,1233,1405.7z"/>
		</g>
	</g>
</g>
<text transform="matrix(1 0 0 1 676.1929 2363.8669)" fill="#6F7C80" font-family="'OpenSans-Light'" font-size="63.8108" letter-spacing="63">RAMADAN KAREEM</text>
</svg>
